<?xml version="1.0" encoding="utf-8"?>
<!-- Generator: Adobe Illustrator 17.0.0, SVG Export Plug-In . SVG Version: 6.00 Build 0)  -->
<!DOCTYPE svg PUBLIC "-//W3C//DTD SVG 1.1//EN" "http://www.w3.org/Graphics/SVG/1.1/DTD/svg11.dtd">
<svg version="1.1" id="Layer_1" xmlns="http://www.w3.org/2000/svg" xmlns:xlink="http://www.w3.org/1999/xlink" x="0px" y="0px"
	 width="1099px" height="1062px" viewBox="450 469 1099 1062" enable-background="new 450 469 1099 1062" xml:space="preserve">
<g id="Code_Inspection_4_">
	<path fill="#1B9DFF" d="M1473,1359H527c-43,0-77-35-77-77V546c0-43,35-77,77-77h945c43,0,77,35,77,77v736
		C1550,1325,1515,1359,1473,1359z"/>
	<path fill="#1B7EFF" d="M1286,1531H714c-30,0-54-24-54-54v-4c0-30,24-54,54-54h573c30,0,54,24,54,54v4
		C1340,1507,1316,1531,1286,1531z"/>
	<path fill="#FFFFFF" d="M1447,1284H819c-29,0-53-24-53-53V705c0-29,24-53,53-53h628c29,0,53,24,53,53v527
		C1499,1261,1476,1284,1447,1284z"/>
	<path fill="#FBD872" d="M669,761H530c-19,0-35-16-35-35v-20c0-19,16-35,35-35h139c19,0,35,16,35,35v20C704,745,689,761,669,761z"/>
	<path fill="#C0E2FE" d="M704,925H517c-12,0-22-10-22-22l0,0c0-12,10-22,22-22h187c12,0,22,10,22,22l0,0C727,915,717,925,704,925z"
		/>
	<path fill="#1B7EFF" d="M685,1015H517c-12,0-22-10-22-22l0,0c0-12,10-22,22-22h168c12,0,22,10,22,22l0,0
		C708,1005,697,1015,685,1015z"/>
	<path fill="#C0E2FE" d="M601,1105h-84c-12,0-22-10-22-22l0,0c0-12,10-22,22-22h84c12,0,22,10,22,22l0,0C624,1095,614,1105,601,1105
		z"/>
	<path fill="#C0E2FE" d="M653,1195H517c-12,0-22-10-22-22l0,0c0-12,10-22,22-22h136c12,0,22,10,22,22l0,0
		C675,1185,665,1195,653,1195z"/>
	<circle fill="#FFFFFF" cx="682" cy="566" r="30"/>
	<circle fill="#FFFFFF" cx="603" cy="566" r="30"/>
	<circle fill="#FFFFFF" cx="525" cy="566" r="30"/>
	<path fill="#C0E2FE" d="M1447,652H819c-29,0-53,24-53,53v85h733v-85C1499,676,1476,652,1447,652z"/>
	<g>
		<path fill="#FBD872" d="M1041,1127c-5,0-10-2-14-6l-80-80c-8-8-8-20,0-28l80-80c8-8,20-8,28,0c8,8,8,20,0,28l-65,65l65,65
			c8,8,8,20,0,28C1051,1125,1046,1127,1041,1127z"/>
		<path fill="#FBD872" d="M1224,1127c-5,0-10-2-14-6c-8-8-8-20,0-28l65-65l-65-65c-8-8-8-20,0-28c8-8,20-8,28,0l80,80c8,8,8,20,0,28
			l-80,80C1234,1125,1229,1127,1224,1127z"/>
		<path fill="#FBD872" d="M1081,1180c-2,0-3-1-5-1c-10-4-15-15-12-26l99-264c4-10,15-15,26-12c10,4,15,15,12,26l-99,264
			C1098,1175,1090,1180,1081,1180z"/>
	</g>
</g>
</svg>
