<?xml version="1.0" encoding="utf-8"?>
<!-- Generator: Adobe Illustrator 17.0.0, SVG Export Plug-In . SVG Version: 6.00 Build 0)  -->
<!DOCTYPE svg PUBLIC "-//W3C//DTD SVG 1.1//EN" "http://www.w3.org/Graphics/SVG/1.1/DTD/svg11.dtd">
<svg version="1.1" id="Layer_1" xmlns="http://www.w3.org/2000/svg" xmlns:xlink="http://www.w3.org/1999/xlink" x="0px" y="0px"
	 width="2000px" height="1587.159px" viewBox="0 267.246 2000 1587.159" enable-background="new 0 267.246 2000 1587.159"
	 xml:space="preserve">
<g>
	
		<linearGradient id="SVGID_1_" gradientUnits="userSpaceOnUse" x1="1026.033" y1="2126.0698" x2="-207.0904" y2="1778.035" gradientTransform="matrix(3.3333 0 0 -3.3333 692.8333 7272.833)">
		<stop  offset="0" style="stop-color:#EB3A3C"/>
		<stop  offset="1" style="stop-color:#BC1941;stop-opacity:0"/>
	</linearGradient>
	<path fill="url(#SVGID_1_)" d="M343,683C-41.667,978.667-45.333,1894,941.667,1769.667c987-124.333,1120.667-568,1034-1079
		C1917,344.333,1203.667,21.333,343,683z"/>
	
		<linearGradient id="SVGID_2_" gradientUnits="userSpaceOnUse" x1="656.2141" y1="1469.1006" x2="-164.912" y2="1970.1268" gradientTransform="matrix(3.3333 0 0 -3.3333 692.8333 7272.833)">
		<stop  offset="4.200120e-007" style="stop-color:#456EBF"/>
		<stop  offset="1" style="stop-color:#4C6BBC;stop-opacity:0"/>
	</linearGradient>
	<path fill="url(#SVGID_2_)" d="M850,575.667C595.333,532,31.667,511,1.667,1107c-22,434.667,1103.667,839,1750,474
		C2486,1166.667,1104.667,619.333,850,575.667z"/>
	
		<linearGradient id="SVGID_3_" gradientUnits="userSpaceOnUse" x1="95.7378" y1="1600.4667" x2="94.2379" y2="1811.9562" gradientTransform="matrix(3.3333 0 0 -3.3333 692.8333 7272.833)">
		<stop  offset="4.200120e-007" style="stop-color:#456EBF"/>
		<stop  offset="1" style="stop-color:#4C6BBC;stop-opacity:0"/>
	</linearGradient>
	<ellipse fill="url(#SVGID_3_)" cx="1010" cy="1661.667" rx="893.667" ry="165.667"/>
	<g>
		
			<linearGradient id="SVGID_4_" gradientUnits="userSpaceOnUse" x1="97.1" y1="2064.4529" x2="97.1" y2="1750.9648" gradientTransform="matrix(3.3333 0 0 -3.3333 692.8333 7272.833)">
			<stop  offset="4.200120e-007" style="stop-color:#C7D3EC"/>
			<stop  offset="0.9965" style="stop-color:#FFFFFF"/>
		</linearGradient>
		<rect x="281.333" y="282.667" fill="url(#SVGID_4_)" width="1470.333" height="1149.333"/>
		<g>
			<rect x="467.333" y="457.333" opacity="0.3" fill="#91A8C9" enable-background="new    " width="315.333" height="32.333"/>
			<rect x="467.333" y="554.333" opacity="0.3" fill="#91A8C9" enable-background="new    " width="546" height="32.333"/>
			<rect x="467.333" y="713" opacity="0.3" fill="#91A8C9" enable-background="new    " width="172" height="32.333"/>
			<rect x="467.333" y="810" opacity="0.3" fill="#91A8C9" enable-background="new    " width="602" height="32.333"/>
			<rect x="1113.333" y="810" opacity="0.3" fill="#91A8C9" enable-background="new    " width="215.333" height="32.333"/>
			<rect x="1351.667" y="907" opacity="0.3" fill="#91A8C9" enable-background="new    " width="215.333" height="32.333"/>
			<rect x="1445.333" y="810" opacity="0.3" fill="#91A8C9" enable-background="new    " width="113.667" height="32.333"/>
			<rect x="749.333" y="713" opacity="0.3" fill="#91A8C9" enable-background="new    " width="809.667" height="32.333"/>
			<rect x="466.333" y="907" opacity="0.3" fill="#91A8C9" enable-background="new    " width="809.667" height="32.333"/>
			<rect x="1050.667" y="554.333" opacity="0.3" fill="#91A8C9" enable-background="new    " width="508.333" height="32.333"/>
			<rect x="855.333" y="457.333" opacity="0.3" fill="#91A8C9" enable-background="new    " width="315.333" height="32.333"/>
			<rect x="1243.667" y="457.333" opacity="0.3" fill="#91A8C9" enable-background="new    " width="315.333" height="32.333"/>
		</g>
		<g>
			<rect x="467.333" y="1012.333" opacity="0.3" fill="#91A8C9" enable-background="new    " width="315.333" height="32.333"/>
			<rect x="467.333" y="1109.333" opacity="0.3" fill="#91A8C9" enable-background="new    " width="546" height="32.333"/>
			<rect x="1050.667" y="1109.333" opacity="0.3" fill="#91A8C9" enable-background="new    " width="508.333" height="32.333"/>
			<rect x="855.333" y="1012.333" opacity="0.3" fill="#91A8C9" enable-background="new    " width="315.333" height="32.333"/>
			<rect x="1243.667" y="1012.333" opacity="0.3" fill="#91A8C9" enable-background="new    " width="315.333" height="32.333"/>
		</g>
	</g>
	<g>
		<g>
			<rect x="1669" y="1629" fill="#FFA1EB" width="35.667" height="54"/>
			<rect x="1571.333" y="1624.333" fill="#FFA1EB" width="37.333" height="63"/>
		</g>
		
			<linearGradient id="SVGID_5_" gradientUnits="userSpaceOnUse" x1="269.1219" y1="1674.0111" x2="306.0005" y2="1674.0111" gradientTransform="matrix(3.3333 0 0 -3.3333 692.8333 7272.833)">
			<stop  offset="0" style="stop-color:#192A7C"/>
			<stop  offset="0.9965" style="stop-color:#0A143C"/>
		</linearGradient>
		<path fill="url(#SVGID_5_)" d="M1668.333,1675h37.333c0,0,7.333,1,7.333,15.333c0,14.333-4,19.667-4,19.667
			s-115.333,1.333-118.333,0c-3-1.333,5-20.333,31.667-25.333C1648.667,1680,1668.333,1675,1668.333,1675z"/>
		
			<linearGradient id="SVGID_6_" gradientUnits="userSpaceOnUse" x1="292.8693" y1="1727.1196" x2="294.3693" y2="1844.1196" gradientTransform="matrix(3.3333 0 0 -3.3333 692.8333 7272.833)">
			<stop  offset="0" style="stop-color:#192A7C"/>
			<stop  offset="0.9965" style="stop-color:#0A143C"/>
		</linearGradient>
		<path fill="url(#SVGID_6_)" d="M1608.667,1075.667c0,0,10,254.667,15.667,314c6,59.333,31.333,266.333,31.333,266.333H1717
			c0,0,12.333-217,4.333-270.333c0,0,8.667-231,19-310C1750.333,996.667,1608.667,1075.667,1608.667,1075.667z"/>
		
			<linearGradient id="SVGID_7_" gradientUnits="userSpaceOnUse" x1="266.1702" y1="1701.7227" x2="272.1702" y2="1834.2227" gradientTransform="matrix(3.3333 0 0 -3.3333 692.8333 7272.833)">
			<stop  offset="0" style="stop-color:#192A7C"/>
			<stop  offset="0.9965" style="stop-color:#0A143C"/>
		</linearGradient>
		<path fill="url(#SVGID_7_)" d="M1530,1075.667c0,0-6,250.667,0,310C1536,1445,1558.333,1656,1558.333,1656h62.333
			c0,0,17.667-209.333,10-262.667c0,0,33.667-177.333,44-256.333S1530,1075.667,1530,1075.667z"/>
		
			<linearGradient id="SVGID_8_" gradientUnits="userSpaceOnUse" x1="314.0787" y1="1876.5037" x2="333.9121" y2="1903.3369" gradientTransform="matrix(3.3333 0 0 -3.3333 692.8333 7272.833)">
			<stop  offset="0" style="stop-color:#192A7C"/>
			<stop  offset="0.9965" style="stop-color:#0A143C"/>
		</linearGradient>
		<path fill="url(#SVGID_8_)" d="M1827,939.333C1817.667,982,1740,1040,1740,1040l-6.667-31.667L1771,926L1827,939.333z"/>
		
			<linearGradient id="SVGID_9_" gradientUnits="userSpaceOnUse" x1="338.0367" y1="1898.1141" x2="308.0367" y2="1936.6141" gradientTransform="matrix(3.3333 0 0 -3.3333 692.8333 7272.833)">
			<stop  offset="0" style="stop-color:#192A7C"/>
			<stop  offset="0.9965" style="stop-color:#0A143C"/>
		</linearGradient>
		<path fill="url(#SVGID_9_)" d="M1758,818c46.333,52.333,72,95.667,69,121.333c-3,25.667-55.333,19.667-69-31.667
			C1744.333,856.333,1758,818,1758,818z"/>
		
			<linearGradient id="SVGID_10_" gradientUnits="userSpaceOnUse" x1="208.8196" y1="1960.4708" x2="210.7119" y2="1915.5287" gradientTransform="matrix(3.3333 0 0 -3.3333 692.8333 7272.833)">
			<stop  offset="0" style="stop-color:#192A7C"/>
			<stop  offset="0.9965" style="stop-color:#0A143C"/>
		</linearGradient>
		<path fill="url(#SVGID_10_)" d="M1428,852.667c-4.667,27-53.333,40.333-53.333,40.333c-34-14.667-8.333-117,1-150
			c0.333-1.667,1-3,1.333-4.333c1-4,1.667-6,1.667-6l40,2.667c0,0,0.333,2.667,1,7c0.333,1.333,0.333,2.667,0.667,4.333
			C1424,772,1431.667,831.333,1428,852.667z"/>
		<path fill="#FFA1EB" d="M1674,766c0,0-7.667-23.667-8.333-48c14.667-27.333-39.667-86-39.667-86l-71-11.667l-13,19.333
			c0,0,0.333,68.667,57,87.333c6.333,2,10.333,8,10,14.667c-0.667,11-1.333,25.333-1.333,25.333L1674,766z"/>
		
			<linearGradient id="SVGID_11_" gradientUnits="userSpaceOnUse" x1="273.69" y1="1984.8859" x2="288.217" y2="2022.7823" gradientTransform="matrix(3.3333 0 0 -3.3333 692.8333 7272.833)">
			<stop  offset="0" style="stop-color:#192A7C"/>
			<stop  offset="0.9965" style="stop-color:#0A143C"/>
		</linearGradient>
		<path fill="url(#SVGID_11_)" d="M1526.667,603.667c-5,41.333,36.333,50.333,64,54.667c21.333,3.667,3.333,64,39.667,66.333
			c36.667,2.333,62-12.333,71.333-66.333c12-66.667-9.667-109.667-80.667-109.667C1550,548.667,1529.333,580.333,1526.667,603.667z"
			/>
		
			<linearGradient id="SVGID_12_" gradientUnits="userSpaceOnUse" x1="257.9" y1="1907.4017" x2="326.5667" y2="1907.4017" gradientTransform="matrix(3.3333 0 0 -3.3333 692.8333 7272.833)">
			<stop  offset="0" style="stop-color:#192A7C"/>
			<stop  offset="0.9965" style="stop-color:#0A143C"/>
		</linearGradient>
		<path fill="url(#SVGID_12_)" d="M1608,752c0,0,45.667,0.333,58.667-17.333c0,0,85.667,46.667,91.333,83.333
			c6,36.667,6,210.667-9,270c0,0-144.333,20-227.333-7.667c0,0-11.667-226.667,10.333-270C1553.667,766.667,1608,752,1608,752z"/>
		
			<linearGradient id="SVGID_13_" gradientUnits="userSpaceOnUse" x1="210.6055" y1="1918.796" x2="280.6055" y2="1944.296" gradientTransform="matrix(3.3333 0 0 -3.3333 692.8333 7272.833)">
			<stop  offset="0" style="stop-color:#192A7C"/>
			<stop  offset="0.9965" style="stop-color:#0A143C"/>
		</linearGradient>
		<path fill="url(#SVGID_13_)" d="M1574.667,767c-16.667,8-87.333,26.667-144,66.333c-22,15.333-43,42-56.333,59.667
			c0,0,65,30.667,164.333-31C1591.667,829.333,1574.667,767,1574.667,767z"/>
		<g>
			
				<linearGradient id="SVGID_14_" gradientUnits="userSpaceOnUse" x1="4657.9736" y1="-1777.3057" x2="4667.875" y2="-1751.4753" gradientTransform="matrix(1.4093 3.0207 3.0207 -1.4093 229.6834 -15912.0947)">
				<stop  offset="0" style="stop-color:#192A7C"/>
				<stop  offset="0.9965" style="stop-color:#0A143C"/>
			</linearGradient>
			<path fill="url(#SVGID_14_)" d="M1482.333,689.333c17.333-8,25-29,17-46.333s-29-25-46.333-17
				c-16,7.333-23.667,25.333-18.667,41.667l-46,21.667l6,13l47-22C1451,692,1468,696.333,1482.333,689.333z M1443.667,669
				c-6.333-13.333-0.333-29,13-35.333c13.333-6.333,29-0.333,35.333,13c6.333,13.333,0.333,29-13,35.333
				C1465.667,688,1449.667,682.333,1443.667,669z"/>
		</g>
		<path fill="#FFA1EB" d="M1385.667,724c0,0-17.667-36.333-6.667-47c11.333-10.667,39-21.333,45.333-14.667
			c6.667,6.667,13,23.333,2,39.667c-11.333,16.333-11,25.333-11,25.333L1385.667,724z"/>
		
			<linearGradient id="SVGID_15_" gradientUnits="userSpaceOnUse" x1="240.0287" y1="1674.0111" x2="276.9073" y2="1674.0111" gradientTransform="matrix(3.3333 0 0 -3.3333 692.8333 7272.833)">
			<stop  offset="0" style="stop-color:#192A7C"/>
			<stop  offset="0.9965" style="stop-color:#0A143C"/>
		</linearGradient>
		<path fill="url(#SVGID_15_)" d="M1571.333,1675h37.333c0,0,7.333,1,7.333,15.333c0,14.333-4,19.667-4,19.667
			s-115.333,1.333-118.333,0c-3-1.333,5-20.333,31.667-25.333C1551.667,1680,1571.333,1675,1571.333,1675z"/>
	</g>
	<g>
		<g>
			<g>
				
					<linearGradient id="SVGID_16_" gradientUnits="userSpaceOnUse" x1="-59.2183" y1="1755.776" x2="24.7183" y2="1751.524" gradientTransform="matrix(3.3333 0 0 -3.3333 692.8333 7272.833)">
					<stop  offset="0" style="stop-color:#192A7C"/>
					<stop  offset="0.9965" style="stop-color:#0A143C"/>
				</linearGradient>
				<rect x="495.333" y="1422.333" fill="url(#SVGID_16_)" width="280" height="10"/>
				
					<linearGradient id="SVGID_17_" gradientUnits="userSpaceOnUse" x1="-62.7188" y1="1800.0658" x2="20.8188" y2="1795.8342" gradientTransform="matrix(3.3333 0 0 -3.3333 692.8333 7272.833)">
					<stop  offset="0" style="stop-color:#192A7C"/>
					<stop  offset="0.9965" style="stop-color:#0A143C"/>
				</linearGradient>
				<rect x="483.667" y="1274.667" fill="url(#SVGID_17_)" width="278.667" height="10"/>
				
					<linearGradient id="SVGID_18_" gradientUnits="userSpaceOnUse" x1="-67.3188" y1="1845.8658" x2="16.2188" y2="1841.6342" gradientTransform="matrix(3.3333 0 0 -3.3333 692.8333 7272.833)">
					<stop  offset="0" style="stop-color:#192A7C"/>
					<stop  offset="0.9965" style="stop-color:#0A143C"/>
				</linearGradient>
				<rect x="468.333" y="1122" fill="url(#SVGID_18_)" width="278.667" height="10"/>
				
					<linearGradient id="SVGID_19_" gradientUnits="userSpaceOnUse" x1="-69.3184" y1="1888.8734" x2="14.5184" y2="1884.6266" gradientTransform="matrix(3.3333 0 0 -3.3333 692.8333 7272.833)">
					<stop  offset="0" style="stop-color:#192A7C"/>
					<stop  offset="0.9965" style="stop-color:#0A143C"/>
				</linearGradient>
				<rect x="461.667" y="978.667" fill="url(#SVGID_19_)" width="279.667" height="10"/>
				
					<linearGradient id="SVGID_20_" gradientUnits="userSpaceOnUse" x1="-72.917" y1="1937.4011" x2="12.017" y2="1933.0989" gradientTransform="matrix(3.3333 0 0 -3.3333 692.8333 7272.833)">
					<stop  offset="0" style="stop-color:#192A7C"/>
					<stop  offset="0.9965" style="stop-color:#0A143C"/>
				</linearGradient>
				<rect x="449.667" y="817" fill="url(#SVGID_20_)" width="283.333" height="10"/>
				
					<linearGradient id="SVGID_21_" gradientUnits="userSpaceOnUse" x1="-77.8146" y1="1988.0492" x2="9.0146" y2="1983.6509" gradientTransform="matrix(3.3333 0 0 -3.3333 692.8333 7272.833)">
					<stop  offset="0" style="stop-color:#192A7C"/>
					<stop  offset="0.9965" style="stop-color:#0A143C"/>
				</linearGradient>
				<rect x="433.333" y="648.333" fill="url(#SVGID_21_)" width="289.667" height="10"/>
			</g>
			
				<linearGradient id="SVGID_22_" gradientUnits="userSpaceOnUse" x1="130.5212" y1="1861.1066" x2="193.8519" y2="1857.8984" gradientTransform="matrix(3.3333 0 0.1846 -3.3333 -136.9872 7272.833)">
				<stop  offset="0" style="stop-color:#192A7C"/>
				<stop  offset="0.9965" style="stop-color:#0A143C"/>
			</linearGradient>
			<polygon fill="url(#SVGID_22_)" points="783.667,1635 700.333,515 710.333,514 793.333,1634 			"/>
			
				<linearGradient id="SVGID_23_" gradientUnits="userSpaceOnUse" x1="47.021" y1="1861.1016" x2="110.3516" y2="1857.8934" gradientTransform="matrix(3.3333 0 0.1846 -3.3333 -136.9872 7272.833)">
				<stop  offset="0" style="stop-color:#192A7C"/>
				<stop  offset="0.9965" style="stop-color:#0A143C"/>
			</linearGradient>
			<polygon fill="url(#SVGID_23_)" points="505,1635 422,515 431.667,514 515,1634 			"/>
		</g>
		<g>
			<g>
				<rect x="584.475" y="1337.865" fill="#FFA1EB" width="37.333" height="63"/>
			</g>
			
				<linearGradient id="SVGID_24_" gradientUnits="userSpaceOnUse" x1="9892.8711" y1="1759.9111" x2="9929.75" y2="1759.9111" gradientTransform="matrix(-3.3333 0 0 -3.3333 33676.1641 7272.833)">
				<stop  offset="0" style="stop-color:#192A7C"/>
				<stop  offset="0.9965" style="stop-color:#0A143C"/>
			</linearGradient>
			<path fill="url(#SVGID_24_)" d="M621.667,1388.667h-37.333c0,0-7.333,1-7.333,15.333c0,14.333,4,19.667,4,19.667
				s115.333,1.333,118.333,0c3-1.333-5-20.333-31.667-25.333C641,1393.333,621.667,1388.667,621.667,1388.667z"/>
		</g>
		<g>
			<g>
				
					<rect x="719.567" y="1195.045" transform="matrix(0.8849 0.4659 -0.4659 0.8849 656.4233 -202.6888)" fill="#FED3F5" width="37.335" height="63.003"/>
			</g>
			
				<linearGradient id="SVGID_25_" gradientUnits="userSpaceOnUse" x1="8106.3008" y1="-130.053" x2="8143.2017" y2="-130.053" gradientTransform="matrix(-2.9497 -1.553 1.553 -2.9497 24918.4629 13509.0332)">
				<stop  offset="0" style="stop-color:#192A7C"/>
				<stop  offset="0.9965" style="stop-color:#0A143C"/>
			</linearGradient>
			<path fill="url(#SVGID_25_)" d="M746,1252l-33-17.333c0,0-7-2.667-13.667,10c-6.667,12.667-5.667,19.333-5.667,19.333
				s101.333,55,104.667,55.333s5-20.333-16.333-37S746,1252,746,1252z"/>
		</g>
		
			<linearGradient id="SVGID_26_" gradientUnits="userSpaceOnUse" x1="-14.1917" y1="1786.8044" x2="-8.6917" y2="1901.8044" gradientTransform="matrix(3.3333 0 0 -3.3333 692.8333 7272.833)">
			<stop  offset="0" style="stop-color:#192A7C"/>
			<stop  offset="0.9965" style="stop-color:#0A143C"/>
		</linearGradient>
		<path fill="url(#SVGID_26_)" d="M574,908l5.333,460.333h48.333c0,0,40-314.333,72-364.333C731.333,954,756,911.333,756,911.333
			l-116.333-26L574,908z"/>
		
			<linearGradient id="SVGID_27_" gradientUnits="userSpaceOnUse" x1="15.6386" y1="1814.2306" x2="14.1386" y2="1911.7306" gradientTransform="matrix(3.3333 0 0 -3.3333 692.8333 7272.833)">
			<stop  offset="0" style="stop-color:#192A7C"/>
			<stop  offset="0.9965" style="stop-color:#0A143C"/>
		</linearGradient>
		<path fill="url(#SVGID_27_)" d="M770,908.333C796.667,936,850.667,1022,847.333,1059c-3.667,36.667-78.667,188-78.667,188
			L713,1219.667c0,0,61.667-123,55-149.667c-6.333-25-70.667-45-123-114C592.667,887,770,908.333,770,908.333z"/>
		
			<linearGradient id="SVGID_28_" gradientUnits="userSpaceOnUse" x1="-83.02" y1="1978.1" x2="-40.8233" y2="1978.1" gradientTransform="matrix(3.3333 0 0 -3.3333 692.8333 7272.833)">
			<stop  offset="0" style="stop-color:#192A7C"/>
			<stop  offset="0.9965" style="stop-color:#0A143C"/>
		</linearGradient>
		<path fill="url(#SVGID_28_)" d="M528,753.333c-34.667,0-78.333-63.667-99.333-98.333c-1.333-2-2.333-4-3.333-5.667
			c-0.667-1.333-1.333-2.333-2-3.667c-1.333-2.333-2.333-4.333-3.333-6c-2.333-4-3.667-6.667-3.667-6.667l34-28
			c0,0,2,2.333,5.333,6.667c1.333,1.667,2.667,3.333,4.333,5c0.667,1,1.667,2,2.667,3c1.333,1.667,3,3.333,4.333,5
			c17.333,19.333,46,48,73.333,62.667C584,711.667,528,753.333,528,753.333z"/>
		
			<linearGradient id="SVGID_29_" gradientUnits="userSpaceOnUse" x1="-52.0192" y1="1978.022" x2="-16.0996" y2="1978.022" gradientTransform="matrix(3.3333 0 0 -3.3333 692.8333 7272.833)">
			<stop  offset="0" style="stop-color:#192A7C"/>
			<stop  offset="0.9965" style="stop-color:#0A143C"/>
		</linearGradient>
		<path fill="url(#SVGID_29_)" d="M639.333,605.333c0,0-149.667,92.333-114.333,146c13.333,15.333,114.333-55,114.333-55V605.333z"
			/>
		<path fill="#FFA1EB" d="M826,485.333c-2.333-1.333-80.333-9-93.667-9S702,506.667,700,509c-1.667,1.667-0.667,41.667-0.333,58.333
			c-0.333,0.667-0.667,1.333-0.667,2C699,579.667,684.333,600,684.333,600l48,11.667L737,595.333c4.667-6.667,12.333-11,20.333-12
			c60-6,68.333-79.333,68.333-79.333S828,486.667,826,485.333z"/>
		<g>
			
				<linearGradient id="SVGID_30_" gradientUnits="userSpaceOnUse" x1="382.1695" y1="4831.6489" x2="391.6015" y2="4856.2544" gradientTransform="matrix(2.734 -1.907 -1.907 -2.734 9116.7305 14535.082)">
				<stop  offset="0" style="stop-color:#192A7C"/>
				<stop  offset="0.9965" style="stop-color:#0A143C"/>
			</linearGradient>
			<path fill="url(#SVGID_30_)" d="M963,537.667c-10.667-15-31.333-18.667-46.333-8.333c-15,10.333-18.667,31.333-8.333,46.333
				c9.667,13.667,27.667,18,42,10.667L978,626l11.333-7.667L961,578C970.667,566.667,972,550.333,963,537.667z M950.333,577.333
				C939,585.333,923,582.667,915,571c-8-11.667-5.333-27.333,6.333-35.333c11.333-8,27.333-5.333,35.333,6.333
				C964.667,553.667,961.667,569.333,950.333,577.333z"/>
		</g>
		
			<linearGradient id="SVGID_31_" gradientUnits="userSpaceOnUse" x1="19.1824" y1="2022.3643" x2="35.0113" y2="2063.6572" gradientTransform="matrix(3.3333 0 0 -3.3333 692.8333 7272.833)">
			<stop  offset="0" style="stop-color:#192A7C"/>
			<stop  offset="0.9965" style="stop-color:#0A143C"/>
		</linearGradient>
		<path fill="url(#SVGID_31_)" d="M774,497.667C824,509,867,510.333,873.667,481C880.333,452,832,417,791,415
			c-41-2-106.333,0-111.667,77.333C674,569.667,699.667,575,699.667,575S735.667,489,774,497.667z"/>
		
			<linearGradient id="SVGID_32_" gradientUnits="userSpaceOnUse" x1="-37.35" y1="1954.6884" x2="28.6836" y2="1954.6884" gradientTransform="matrix(3.3333 0 0 -3.3333 692.8333 7272.833)">
			<stop  offset="0" style="stop-color:#192A7C"/>
			<stop  offset="0.9965" style="stop-color:#0A143C"/>
		</linearGradient>
		<path fill="url(#SVGID_32_)" d="M780.667,888c-0.667,11-1.333,18-1.333,18s-145.333,41.333-211-1c0,0,0.333-7,1.333-19.333
			C574,830.333,589,671,622.667,618C648.333,590.333,691,590.333,691,590.333s6.667,19.667,44.667,11.333
			c0,0,35.333,32.333,48,60.333C794.333,684.667,784.333,835.667,780.667,888z"/>
		
			<linearGradient id="SVGID_33_" gradientUnits="userSpaceOnUse" x1="15.1824" y1="1978.25" x2="46.174" y2="1978.25" gradientTransform="matrix(3.3333 0 0 -3.3333 692.8333 7272.833)">
			<stop  offset="0" style="stop-color:#192A7C"/>
			<stop  offset="0.9965" style="stop-color:#0A143C"/>
		</linearGradient>
		<path fill="url(#SVGID_33_)" d="M751.333,617.333c0,0,86.667,55.667,94.333,71s-28,51.667-28,51.667S714.667,692,751.333,617.333z
			"/>
		
			<linearGradient id="SVGID_34_" gradientUnits="userSpaceOnUse" x1="37.45" y1="1975.3607" x2="78.55" y2="1975.3607" gradientTransform="matrix(3.3333 0 0 -3.3333 692.8333 7272.833)">
			<stop  offset="0" style="stop-color:#192A7C"/>
			<stop  offset="0.9965" style="stop-color:#0A143C"/>
		</linearGradient>
		<path fill="url(#SVGID_34_)" d="M954.667,668.667c-1,0.667-1.667,1.667-2.667,2.333c-1.667,1.333-3.333,3-4.667,4.333
			c-0.667,0.667-1.667,1.333-2.333,2c-1.667,1.333-3,2.667-4.667,4c-79,69-122.667,58.333-122.667,58.333s4.333-27,28-51.667
			c15-15.667,46-32.667,66.333-42.667c2.333-1,4.333-2.333,6.333-3c1-0.667,2-1,3-1.333c2.333-1,4.333-2,6-2.667
			c3-1.333,4.667-2,4.667-2L954.667,668.667z"/>
		<path fill="#FFA1EB" d="M416.667,611.333c-5-4.333-51-54.667-6-74.333c45-19.667,36.667,32.333,30.333,35.333
			c-21,10-5.667,22-5.667,22L416.667,611.333z"/>
		<path fill="#FFA1EB" d="M961.667,653.333c0,0,11.333-6.333,27.667-14.333s17.333-25.333,5.333-38.333c-12-13.333-33-13.667-36,0
			c-3,13.667-11.333,34.333-11.333,34.333L961.667,653.333z"/>
	</g>
	<g>
		
			<linearGradient id="SVGID_35_" gradientUnits="userSpaceOnUse" x1="58.5649" y1="1879.9861" x2="91.5649" y2="1828.9861" gradientTransform="matrix(3.3333 0 0 -3.3333 692.8333 7272.833)">
			<stop  offset="0" style="stop-color:#192A7C"/>
			<stop  offset="0.9965" style="stop-color:#0A143C"/>
		</linearGradient>
		<path fill="url(#SVGID_35_)" d="M1013,1001.333c0,0-143.333-11.333-166,16.667c-22.667,27.667-20.333,91.333-20.333,91.333
			L1013,1001.333z"/>
		<g>
			
				<linearGradient id="SVGID_36_" gradientUnits="userSpaceOnUse" x1="110.65" y1="1821.722" x2="157.35" y2="1821.722" gradientTransform="matrix(3.3333 0 0 -3.3333 692.8333 7272.833)">
				<stop  offset="0" style="stop-color:#192A7C"/>
				<stop  offset="0.9965" style="stop-color:#0A143C"/>
			</linearGradient>
			<path fill="url(#SVGID_36_)" d="M1061.667,1236.667c0,0,74,10.333,155.667-30L1205.667,1163c0,0-100,16-117.333,17.333
				c-17.667,1.333-20,19.667-22.667,20.333C1063,1201.667,1061.667,1236.667,1061.667,1236.667z"/>
			<path fill="#FFA1EB" d="M791,1383c0,0-5,95.333-14,122.667S651.333,1660,654,1677c2.667,17,7.667,20.333,18,35.333
				c10.333,15.333-40.333,8.333-69.333-26.333c-6.667-15,105.667-157,112.667-191c7-34,13-135.667,13-135.667L791,1383z"/>
			
				<linearGradient id="SVGID_37_" gradientUnits="userSpaceOnUse" x1="630.3145" y1="223.3192" x2="663.6039" y2="223.3192" gradientTransform="matrix(3.123 1.1657 1.1657 -3.123 -1638.4806 1651.2419)">
				<stop  offset="0" style="stop-color:#192A7C"/>
				<stop  offset="0.9965" style="stop-color:#0A143C"/>
			</linearGradient>
			<path fill="url(#SVGID_37_)" d="M607.667,1668.667c0,0-5-0.333-10,6.667c-5,7-17.333,34.333-13.667,37
				c3.667,2.667,18.667-24.667,36.667-10.333c18,14.333,16.333,29.333,37,38c20.667,8.667,33,2.667,32-1.333
				c-1-3.667-19-28.667-19-28.667S644,1704.333,622,1687C606,1674.333,607.667,1668.667,607.667,1668.667z"/>
			<path fill="#FFA1EB" d="M893.333,1359.667c0,0,28.667,91,30,119.667c1,28.667-64,188.667-55.333,203.667s14.333,16.333,29.333,27
				c15,10.667-35,22-74.333-0.333c-11.667-11.667,44-184,38.667-218.333c-5.333-34.333-35-131.667-35-131.667H893.333z"/>
			
				<linearGradient id="SVGID_38_" gradientUnits="userSpaceOnUse" x1="30.8935" y1="1755.2195" x2="35.8935" y2="1814.5529" gradientTransform="matrix(3.3333 0 0 -3.3333 692.8333 7272.833)">
				<stop  offset="0" style="stop-color:#192A7C"/>
				<stop  offset="0.9965" style="stop-color:#0A143C"/>
			</linearGradient>
			<path fill="url(#SVGID_38_)" d="M730,1160.667c0,0-77.333,80.667-78.667,252.667c0,49.333,266,59,286,32.333
				c19.667-26.667-24-176-24-176s-57.333-107-68.667-102C833.333,1172,730,1160.667,730,1160.667z"/>
			
				<linearGradient id="SVGID_39_" gradientUnits="userSpaceOnUse" x1="42.7668" y1="1820.2133" x2="96.4334" y2="1877.2133" gradientTransform="matrix(3.3333 0 0 -3.3333 692.8333 7272.833)">
				<stop  offset="0" style="stop-color:#192A7C"/>
				<stop  offset="0.9965" style="stop-color:#0A143C"/>
			</linearGradient>
			<path fill="url(#SVGID_39_)" d="M1032.667,1000.667c0,0-79.333-1-133.667,24.667c-54.667,25.667-169,135.333-169,135.333
				S884,1235,913.333,1269.333c0,0,35.667-67,92-92C1061.667,1152,1032.667,1000.667,1032.667,1000.667z"/>
			<g>
				
					<linearGradient id="SVGID_40_" gradientUnits="userSpaceOnUse" x1="483.1606" y1="3216.2571" x2="492.5927" y2="3240.8623" gradientTransform="matrix(3.1223 -1.167 -1.167 -3.1223 3472.8735 11734.3232)">
					<stop  offset="0" style="stop-color:#192A7C"/>
					<stop  offset="0.9965" style="stop-color:#0A143C"/>
				</linearGradient>
				<path fill="url(#SVGID_40_)" d="M1258,1075c-6.333-17.333-25.667-26-43-19.667c-17.333,6.333-26,25.667-19.667,43
					c6,15.667,22.333,24.333,38,21l17,45.333L1263,1160l-17.333-46C1258,1105,1263.333,1089.333,1258,1075z M1235.667,1110.333
					c-13,5-27.667-1.667-32.667-15c-5-13.333,1.667-27.667,15-32.667c13-5,27.667,1.667,32.667,15
					C1255.333,1091,1248.667,1105.333,1235.667,1110.333z"/>
			</g>
			<path fill="#FFA1EB" d="M1174.333,975.333c0,0-8,59-75.667,68.667c-67.667,9.667-34-94-29.333-95.667
				c4.667-2,50.667-15,53.667-15C1126,933.333,1174.333,975.333,1174.333,975.333z"/>
			
				<linearGradient id="SVGID_41_" gradientUnits="userSpaceOnUse" x1="35.8268" y1="1667.0895" x2="69.1003" y2="1667.0895" gradientTransform="matrix(3.3333 0 0 -3.3333 692.8333 7272.833)">
				<stop  offset="0" style="stop-color:#192A7C"/>
				<stop  offset="0.9965" style="stop-color:#0A143C"/>
			</linearGradient>
			<path fill="url(#SVGID_41_)" d="M821.667,1691.333c0,0-4.667,1.667-7,9.667c-2.333,8-4.333,38.333,0,39.333
				c4.333,1,9-29.667,30.667-22.667c21.667,7.333,25.333,21.667,48,22.667c22.667,1,31.667-9,29.333-12.333c-2.333-3-28-20-28-20
				s-27,4-53.667-4.667C822,1697.333,821.667,1691.333,821.667,1691.333z"/>
			
				<linearGradient id="SVGID_42_" gradientUnits="userSpaceOnUse" x1="94.05" y1="1827.8" x2="118.5903" y2="1827.8" gradientTransform="matrix(3.3333 0 0 -3.3333 692.8333 7272.833)">
				<stop  offset="0" style="stop-color:#192A7C"/>
				<stop  offset="0.9965" style="stop-color:#0A143C"/>
			</linearGradient>
			<path fill="url(#SVGID_42_)" d="M1006.333,1140c0,0,12.333,85.667,55.333,96.667c4.667-2,25.667-22.333,26.333-52
				s-26.333-61-26.333-61L1006.333,1140z"/>
			
				<linearGradient id="SVGID_43_" gradientUnits="userSpaceOnUse" x1="116.1201" y1="1844.161" x2="134.1201" y2="1929.661" gradientTransform="matrix(3.3333 0 0 -3.3333 692.8333 7272.833)">
				<stop  offset="0" style="stop-color:#B61946"/>
				<stop  offset="1" style="stop-color:#EABCC9"/>
			</linearGradient>
			<path fill="url(#SVGID_43_)" d="M1096.667,959.667c0,0,84,39,114.667-4.333C1242,912,1144.333,848,1084.667,870.667
				C1025,893.333,1017,936,1016.333,984c-0.667,48-48.333,168.667-11.333,193c37,24.333,124-12.667,104.667-74.667
				S1096.667,959.667,1096.667,959.667z"/>
			<path fill="#FFA1EB" d="M1226.667,1196c4.667-1.667,34.333-1,48.667-7.667c14.333-6.667,9.333-32.333,0-46.667
				c-9.333-14.333-35.667-6-39.333,3.333c-3.333,9.333-18.333,22-18.333,22L1226.667,1196z"/>
		</g>
	</g>
	<circle fill="#FFFFFF" cx="935.667" cy="556.667" r="25.333"/>
	<circle fill="#FFFFFF" cx="1467.667" cy="657.667" r="26.667"/>
	<circle fill="#FFFFFF" cx="1227" cy="1086.667" r="25"/>
	<path fill="#19297A" d="M423.333,533l7,52.333c0,0,7,3,7,1.333c0-1.333-4-54-4-54L423.333,533z"/>
	<path fill="#FFFFFF" d="M693.333,586l-9,4.667c0,0,4.667,22.667,55.667,15.333l-3-9.667C737.333,596,710,600,693.333,586z"/>
	<path fill="#FFFFFF" d="M1666.667,732.667c0,0,7,4,9.333,7.667c0,0-35,25.667-78.667,15.333L1609,746
		C1609,746,1640,748.667,1666.667,732.667z"/>
	<polygon fill="#FFFFFF" points="1381,733 1382.667,721.333 1417.667,725 1417.667,735.667 	"/>
	
		<linearGradient id="SVGID_44_" gradientUnits="userSpaceOnUse" x1="158.1" y1="1831.3389" x2="158.1" y2="1820.4783" gradientTransform="matrix(3.3333 0 0 -3.3333 692.8333 7272.833)">
		<stop  offset="4.200120e-007" style="stop-color:#C7D3EC"/>
		<stop  offset="0.9965" style="stop-color:#FFFFFF"/>
	</linearGradient>
	<polygon fill="url(#SVGID_44_)" points="1207,1168.333 1221,1164.667 1232.667,1198.333 1216.667,1204.333 	"/>
</g>
</svg>
