<?xml version="1.0" encoding="utf-8"?>
<!-- Generator: Adobe Illustrator 17.0.0, SVG Export Plug-In . SVG Version: 6.00 Build 0)  -->
<!DOCTYPE svg PUBLIC "-//W3C//DTD SVG 1.1//EN" "http://www.w3.org/Graphics/SVG/1.1/DTD/svg11.dtd">
<svg version="1.1" id="Layer_1" xmlns="http://www.w3.org/2000/svg" xmlns:xlink="http://www.w3.org/1999/xlink" x="0px" y="0px"
	 width="1920.411px" height="1566.157px" viewBox="0 267.246 1920.411 1566.157"
	 enable-background="new 0 267.246 1920.411 1566.157" xml:space="preserve">
<g>
	<g>
		
			<linearGradient id="SVGID_1_" gradientUnits="userSpaceOnUse" x1="-14.2844" y1="1828.7987" x2="342.0918" y2="1560.4344" gradientTransform="matrix(3.3333 0 0 -3.3333 692.8333 7272.833)">
			<stop  offset="4.200120e-007" style="stop-color:#456EBF"/>
			<stop  offset="1" style="stop-color:#4C6BBC;stop-opacity:0"/>
		</linearGradient>
		<path fill="url(#SVGID_1_)" d="M1883.333,1470.667c-2,92.667-48,164.667-132,212c-89,50.333-221,73.333-389,64.333
			c-37.333-2-76.333-5.667-117-10.667c-97,35.667-205.667,57.333-326.667,60.667c-67.667,2-131.667-1.667-192-10.333
			c-152-21.667-280-74.667-379.667-148C339.333,1633,331.667,1627,324,1621c-57.333-46-104.667-99.333-140.333-157.333
			c39.667-15.667,82.667-30.333,128-44c214-64,486-102,782.333-102c218.667,0,424,20.667,602.667,57.333
			c65.333,13.333,126.667,28.667,184.333,46C1882.667,1439,1883.667,1455.667,1883.333,1470.667z"/>
		<g>
			
				<linearGradient id="SVGID_2_" gradientUnits="userSpaceOnUse" x1="-77.9912" y1="1977.7074" x2="416.0098" y2="1605.7067" gradientTransform="matrix(3.3333 0 0 -3.3333 692.8333 7272.833)">
				<stop  offset="4.200120e-007" style="stop-color:#456EBF"/>
				<stop  offset="1" style="stop-color:#4C6BBC;stop-opacity:0"/>
			</linearGradient>
			<path opacity="0.3" fill="url(#SVGID_2_)" enable-background="new    " d="M1883.333,1470.667c-2,92.667-48,164.667-132,212
				c-89,50.333-221,73.333-389,64.333c-37.333-2-76.333-5.667-117-10.667c-200-25.333-441-90-714.333-199.667
				c-85.667-34.333-158.667-74-219.667-117.333C211,1348.333,142.333,1266.667,100,1181
				C-77.333,822.667,204.667,388.333,553.333,315.333c185.667-39,357.333-14.333,511.333,50c355.333,149,617,511,740,798.667
				c42,98,67.667,187.333,76,256.667C1882.667,1439,1883.667,1455.667,1883.333,1470.667z"/>
			
				<linearGradient id="SVGID_3_" gradientUnits="userSpaceOnUse" x1="730.1186" y1="2399.0728" x2="85.0542" y2="1853.0181" gradientTransform="matrix(3.3333 0 0 -3.3333 692.8333 7272.833)">
				<stop  offset="0" style="stop-color:#EB3A3C"/>
				<stop  offset="1" style="stop-color:#BC1941;stop-opacity:0"/>
			</linearGradient>
			<path fill="url(#SVGID_3_)" d="M1881,787c-3,121.333-28,251.667-76.333,377.333c-0.333,0.667-0.667,1.333-0.667,2
				c-24.333,62.667-54.333,124-90.667,182.333c-5.333,8.667-11,17.667-17,26.333c-82,124-192.667,232.667-333.667,308.667
				c-36.667,20-75.667,37.667-116.667,52.667c-0.333,0-0.333,0-0.667,0.333c-97,35.667-205.667,57.333-326.667,60.667
				c-67.667,2-131.667-1.667-192-10.333c-152-21.667-280-74.667-379.667-148c-7.667-5.667-15.333-11.667-23-17.667
				c-57.333-46-104.667-99.333-140.333-157.333c-53-85.333-81.667-180.667-83.333-279c0-1,0-2.333,0-3.333
				c-3-250,168-517.333,557.667-677.333c151-62,286.333-107.667,406.333-138.667h0.333C1662.667,211.667,1890.333,423,1881,787z"/>
		</g>
		<g>
			<path fill="#FFA1EB" d="M1033.667,1206.333c31.333-12,74,6.667,108.667-17.667c35-24.667,64.667-56,60.667-66.333
				c-3.667-10-67.333,8-88.333,22c-21,13.667,22.667-45-31.667-18.667c-25.667,12.333-63.667,36.667-63.667,36.667
				L1033.667,1206.333z"/>
		</g>
		<g>
			<path fill="#FFFFFF" d="M839.333,1224.667c0,0,154.667-50.667,183.667-71l36.667,48.333c0,0-163,211-284,107
				C735,1274.333,839.333,1224.667,839.333,1224.667z"/>
			
				<linearGradient id="SVGID_4_" gradientUnits="userSpaceOnUse" x1="-47.3083" y1="1856.8978" x2="-63.7259" y2="1580.7834" gradientTransform="matrix(3.3333 0 0 -3.3333 692.8333 7272.833)">
				<stop  offset="0" style="stop-color:#030E42"/>
				<stop  offset="1" style="stop-color:#0B295E;stop-opacity:0"/>
			</linearGradient>
			<path fill="url(#SVGID_4_)" d="M737.667,1463c0,62.667-1,118.333-1.667,149.667c-0.333,16.667-0.667,26.333-0.667,26.333H349
				c-7.667-5.667-15.333-11.667-23-17.667c-3-21.667-8.333-61-13.667-107.667c-3.667-31.333-7.667-66.333-10.667-101.333
				c-8.667-91-13.333-183.667-3.667-222c2-7.333,4.667-14.667,8.333-21.667l0,0c37.333-75.333,156-128.667,156-128.667
				l85.333,37.667L591.333,1050c0,0,38.667,10,74.333,38c21.667,17,42.333,40.667,53,72.667c2,6.333,4,14.333,5.667,23.667
				c1,4.667,1.667,10,2.333,15.333c2.333,16.333,4,35.333,5.667,56.667c3.333,46.333,4.667,102,5.333,156c0,5,0,10.333,0,15.333
				c0,1.333,0,2.333,0,3.667c0,6,0,12,0,17.667C737.667,1453.667,737.667,1458.333,737.667,1463z"/>
			<path fill="#FED3F5" d="M444.333,992.667c0.333,0.333,0.333,0.333,0.333,0.333C444.667,993,444.667,992.667,444.333,992.667z"/>
			<path fill="#FFA1EB" d="M710,857.667V911c0,33.333-11.667,64.333-31.333,88.333c-19.667,24-47,41.667-78.333,48.333
				c-4,2.667-6.333,5.667-7.667,8.333s-1.667,5-1.667,6.333v2c0,2.333-0.333,4.667-1,7c-3.333,12.667-10,23.333-22.667,23.333
				C495,1094.667,462,1039.333,462,1039.333v-17c0,0-3.667-12.333-11.667-22.667l0,0c-2-2.333-3.667-4.667-5.333-7
				c0,0,63-21.667,82-144C526.667,849,635.667,875.667,710,857.667z"/>
			<path fill="#FFA1EB" d="M570.333,1489.667c0,0,28.667-5,44.333-1.667c15.667,3.333,46.333,20,66.333,16.333
				c20-3.333,71-39.667,49.333-41.333c-21.667-1.667-161.667-0.333-161.667-0.333L570.333,1489.667z"/>
			
				<linearGradient id="SVGID_5_" gradientUnits="userSpaceOnUse" x1="-47.727" y1="1903.6757" x2="-13.727" y2="1992.3424" gradientTransform="matrix(3.3333 0 0 -3.3333 692.8333 7272.833)">
				<stop  offset="0" style="stop-color:#B61946"/>
				<stop  offset="1" style="stop-color:#EABCC9"/>
			</linearGradient>
			<path fill="url(#SVGID_5_)" d="M778.333,783.667c0,43.333-29.667,64.667-68.333,74C635.333,875.333,526.667,849,526.667,849
				c-19,122.333-82,144-82,144s0,0-0.333-0.333c0,0,0,0-0.333-0.333c-5.333-6.667-47-62.333-54.333-166.667
				C379,624.667,778.333,657,778.333,783.667z"/>
			<path fill="#FFFFFF" d="M326,1138c-57,68-132.667,320.667-22.667,371.667s289,9.667,289,9.667v-56.667
				c0,0-169.667-2.333-223.667-49.333C299,1352.333,357.333,1101,326,1138z"/>
			<path fill="#FFFFFF" d="M676.667,1097.667c83,29.667,150,108.333,173.333,128.333c23.333,20,19.333,171.667-76.333,79.333
				c-12-11.333-27.667-31-39-45.667C655.667,1156.333,676.667,1097.667,676.667,1097.667z"/>
			<g>
				
					<linearGradient id="SVGID_6_" gradientUnits="userSpaceOnUse" x1="-26.3519" y1="1820.854" x2="-22.6019" y2="1760.854" gradientTransform="matrix(3.3333 0 0 -3.3333 692.8333 7272.833)">
					<stop  offset="4.200120e-007" style="stop-color:#456EBF"/>
					<stop  offset="1" style="stop-color:#4C6BBC;stop-opacity:0"/>
				</linearGradient>
				<path opacity="0.5" fill="url(#SVGID_6_)" enable-background="new    " d="M807.333,1427.333H417v-217.667
					c0-14,11.333-25.667,25.667-25.667h339c14,0,25.667,11.333,25.667,25.667V1427.333z"/>
				<path fill="#C5D0DC" d="M807.333,1427.333H417l-18.667,19c-8.667,8.667-8,16.333,1.667,16.333h424.333
					c9.667,0,10.333-7.667,1.667-16.333L807.333,1427.333z"/>
				
					<linearGradient id="SVGID_7_" gradientUnits="userSpaceOnUse" x1="-83.4072" y1="1749.85" x2="35.1071" y2="1749.85" gradientTransform="matrix(3.3333 0 0 -3.3333 692.8333 7272.833)">
					<stop  offset="0" style="stop-color:#030E42"/>
					<stop  offset="1" style="stop-color:#0B295E"/>
				</linearGradient>
				<path fill="url(#SVGID_7_)" d="M796.333,1431h-369c-2,0-3.667,1-5,2.667L417,1441c-4.667,4.333-1.667,8,7,8h376.667
					c8.667,0,11.667-3.667,7-8l-6.333-7.667C800,1432,798.333,1431,796.333,1431z"/>
				<rect x="434.333" y="1199.333" fill="#F5F8F9" width="356.333" height="212.667"/>
				<path fill="#B61B46" d="M679,1337l-52.667-91c-6.333-11-22-11-28.333,0l-52.667,91c-6.333,11,1.667,24.667,14,24.667h105
					C677.333,1361.667,685.333,1348,679,1337z M671.333,1349c-0.667,1-2.667,3.667-6.667,3.667h-105c-4,0-6-2.667-6.667-3.667
					c-0.667-1-2-4,0-7.667l52.667-91c2-3.333,5.333-3.667,6.667-3.667S617,1247,619,1250.333l52.667,91
					C673.333,1345,672,1348,671.333,1349z"/>
				<g>
					<circle fill="#B61B46" cx="612.333" cy="1335.333" r="8.667"/>
					<path fill="#B61B46" d="M603.667,1276.667c0-4.667,3.667-8.667,8.667-8.667s8.667,3.667,8.667,8.667
						s-3.667,44.667-8.667,44.667S603.667,1281.333,603.667,1276.667z"/>
				</g>
			</g>
		</g>
		
			<linearGradient id="SVGID_8_" gradientUnits="userSpaceOnUse" x1="-44.8498" y1="1690.6586" x2="-48.8716" y2="1623.0187" gradientTransform="matrix(3.3333 0 0 -3.3333 692.8333 7272.833)">
			<stop  offset="0" style="stop-color:#030E42"/>
			<stop  offset="1" style="stop-color:#0B295E;stop-opacity:0"/>
		</linearGradient>
		<path fill="url(#SVGID_8_)" d="M735.333,1639l-6.667,148c-152-21.667-280-74.667-379.667-148L735.333,1639L735.333,1639z"/>
		
			<linearGradient id="SVGID_9_" gradientUnits="userSpaceOnUse" x1="183.85" y1="1929.9501" x2="183.85" y2="1929.9501" gradientTransform="matrix(3.3333 0 0 -3.3333 692.8333 7272.833)">
			<stop  offset="0" style="stop-color:#030E42"/>
			<stop  offset="1" style="stop-color:#0B295E;stop-opacity:0"/>
		</linearGradient>
		<path fill="url(#SVGID_9_)" d="M1305.667,839.667"/>
		<path fill="#FFA1EB" d="M1305.667,821.667c0,0-23.667,175,101.333,218.333c41,5.333,45,68.333,45,68.333
			c1.333,3.333,61.667-13,102.333-63c0,0-8.333-23.667,0-54c8.333-30.333,35.333-113,11.667-190.667
			C1542.333,722.333,1305.667,821.667,1305.667,821.667z"/>
		<path fill="#08041E" d="M1554,991c0,0,5.667-85.333-80.667-95.333c-21-2.333-42-8-61.333-15.333c33-8,61.333-19,76.667-31
			c48,1,84.667-6.667,98.667-10C1606.667,920.333,1554,991,1554,991z"/>
		
			<linearGradient id="SVGID_10_" gradientUnits="userSpaceOnUse" x1="195.493" y1="1929.3392" x2="108.0064" y2="1870.7521" gradientTransform="matrix(3.3333 0 0 -3.3333 692.8333 7272.833)">
			<stop  offset="0" style="stop-color:#030E42"/>
			<stop  offset="0.2414" style="stop-color:#051549;stop-opacity:0.7586"/>
			<stop  offset="1" style="stop-color:#0B295E;stop-opacity:0"/>
		</linearGradient>
		<path fill="url(#SVGID_10_)" d="M1488.667,849c-15.333,12-43.667,23.333-76.667,31c-73.667,17.667-169.333,18.333-187-27.667
			C1208.667,810,1284.667,783,1284.667,783c15.667,11,31.667,20.333,47.667,28C1388.667,839,1443.667,848,1488.667,849z"/>
		
			<linearGradient id="SVGID_11_" gradientUnits="userSpaceOnUse" x1="223.7513" y1="1952.1036" x2="195.3773" y2="1782.9105" gradientTransform="matrix(3.3333 0 0 -3.3333 692.8333 7272.833)">
			<stop  offset="0" style="stop-color:#030E42"/>
			<stop  offset="0.2414" style="stop-color:#051549;stop-opacity:0.7586"/>
			<stop  offset="1" style="stop-color:#0B295E;stop-opacity:0"/>
		</linearGradient>
		<path fill="url(#SVGID_11_)" d="M1593.667,837.333c0,0-2,0.667-6,1.667c-14,3.667-50.667,11.333-98.667,10
			c-45-1-100.333-10-156.333-37.667c-16-7.667-31.667-17-47.667-28c0,0-38.333-108.333,57.667-115
			C1421.333,663,1467,728,1543,737.667C1619,747,1593.667,837.333,1593.667,837.333z"/>
		<path fill="#FFEF6D" d="M1338.667,727c-10.333,33.333-23.333,42.667-34.333,38.333c-11-4.667-16-21.667-5.667-55L1325,698
			L1338.667,727z"/>
		
			<linearGradient id="SVGID_12_" gradientUnits="userSpaceOnUse" x1="256.9265" y1="1746.9725" x2="259.5932" y2="1653.6393" gradientTransform="matrix(3.3333 0 0 -3.3333 692.8333 7272.833)">
			<stop  offset="0" style="stop-color:#192A7C"/>
			<stop  offset="1" style="stop-color:#0B295E;stop-opacity:0"/>
		</linearGradient>
		<path fill="url(#SVGID_12_)" d="M1751.333,1682.667c-89,50.333-221,73.333-389,64.333c0.333-31.333,0.667-59.333,0.333-63.667
			c151-81.333,267-200.333,350.667-335C1724,1430.667,1740.333,1579,1751.333,1682.667z"/>
		<path fill="#192A7C" d="M1713.333,1348.333C1642,1463.667,1546.667,1567,1426,1645.667c-20.333,13.333-41.333,26-63.333,37.667
			c-2-63.667-6.667-294.667,19-437.667c9.667-53,45.333-112.667,70-138c0,0,74.667-27.667,102-63c0,0,127.667,98,146.333,210
			C1704,1279,1708.667,1311.667,1713.333,1348.333z"/>
		<g>
			<polygon fill="#FFFFFF" points="1194.333,1434 1173,1436 1181,1495 1207,1493.333 			"/>
			<path fill="#FFA1EB" d="M1179.667,1485c-29.333,2.333-56,33.333-93,27c-37-6.333-72.333-20.333-73.333-29.667
				c-0.667-9.333,56.667-19,78.333-16c22,3-35-27.333,18-27c25,0.333,64.333,5.333,64.333,5.333L1179.667,1485z"/>
		</g>
		<path fill="#FFFFFF" d="M1554,1045l21.333,11c-18,37-61.333,67.333-114.667,95.333c0,0-5-29.333-25-26l16-17.333
			C1451.667,1108,1525.667,1078,1554,1045z"/>
		
			<linearGradient id="SVGID_13_" gradientUnits="userSpaceOnUse" x1="258.3807" y1="1788.5458" x2="14.323" y2="1799.2345" gradientTransform="matrix(3.3333 0 0 -3.3333 692.8333 7272.833)">
			<stop  offset="0" style="stop-color:#030E42"/>
			<stop  offset="1" style="stop-color:#0B295E;stop-opacity:0"/>
		</linearGradient>
		<path fill="url(#SVGID_13_)" d="M1564.333,1108.333c0,0,99.333,34.667,92.333,130.333c-7,92.667-131.333,195-208.333,212.333
			c-77,17.333-240,48-240,48l-14-65.333c0,0,162.667-67.333,233-91.667C1497.333,1317.667,1502,1119,1564.333,1108.333z"/>
	</g>
	
		<rect x="1410.284" y="1229.451" transform="matrix(-0.9623 -0.2721 0.2721 -0.9623 2489.812 2820.4766)" fill="#FFEF6D" width="60.335" height="16.334"/>
</g>
</svg>
