<?xml version="1.0" encoding="utf-8"?>
<!-- Generator: Adobe Illustrator 17.0.0, SVG Export Plug-In . SVG Version: 6.00 Build 0)  -->
<!DOCTYPE svg PUBLIC "-//W3C//DTD SVG 1.1//EN" "http://www.w3.org/Graphics/SVG/1.1/DTD/svg11.dtd">
<svg version="1.1" id="Layer_1" xmlns="http://www.w3.org/2000/svg" xmlns:xlink="http://www.w3.org/1999/xlink" x="0px" y="0px"
	 width="1608.161px" height="1488.149px" viewBox="192.238 258.245 1608.161 1488.149"
	 enable-background="new 192.238 258.245 1608.161 1488.149" xml:space="preserve">
<g>
	<path fill="#0C092D" d="M1402.333,1672c-131.667,48.667-266,61.333-394.333,45c-64.667-8-127.667-23.333-188-45
		c-53.333-19-104.667-43.333-153-71.667c-242.667-142.333-414.333-392.667-418.667-671C246.667,812.333,274.333,690,339,569
		c171-321,517.333-289.333,744.333-216.667c38.333,12.333,73.333,25.667,103.667,39c93.667,41,187.667,111.333,271.333,199.667
		c1.333,1.333,2.667,2.667,4,4c13.667,14.667,27.333,30,40.667,45.333c1.333,1.333,2.333,3,3.667,4.333
		c16,19,31.333,39,46.333,59.333c1,1.667,2.333,3,3.333,4.667c79.667,110,141.667,235,170.667,359
		C1784.667,1314,1714.333,1557,1402.333,1672z"/>
	<g>
		<g>
			
				<linearGradient id="SVGID_1_" gradientUnits="userSpaceOnUse" x1="-75.9717" y1="1877.192" x2="-75.0563" y2="1913.3505" gradientTransform="matrix(3.3333 0 0 -3.3333 692.8333 7272.833)">
				<stop  offset="4.200120e-007" style="stop-color:#456EBF"/>
				<stop  offset="1" style="stop-color:#4C6BBC;stop-opacity:0"/>
			</linearGradient>
			<circle opacity="0.2" fill="url(#SVGID_1_)" enable-background="new    " cx="441" cy="960" r="94.333"/>
			<g>
				<g>
					
						<linearGradient id="SVGID_2_" gradientUnits="userSpaceOnUse" x1="-77.1901" y1="1912.3408" x2="-77.5859" y2="1869.9988" gradientTransform="matrix(3.3333 0 0 -3.3333 692.8333 7272.833)">
						<stop  offset="4.200120e-007" style="stop-color:#456EBF"/>
						<stop  offset="1" style="stop-color:#4C6BBC;stop-opacity:0"/>
					</linearGradient>
					<path fill="url(#SVGID_2_)" d="M417.333,996.667c-6.667-3.667-12.333-8.667-16-15.333c-4-6.333-6-14-6-22
						c0-8.333,2-15.667,6-22c4-6.333,9.333-11.667,16-15.333s14.333-5.333,23-5.333c7.333,0,13.667,1.333,19.333,3.667
						c5.667,2.667,10.667,6,14.667,11L462,942.667c-5.667-6.333-12.667-9.667-20.667-9.667c-5,0-9.667,1-13.667,3.333
						c-4,2.333-7,5.333-9.333,9.333c-2.333,4-3.333,8.667-3.333,13.667S416,969,418.333,973c2.333,4,5.333,7,9.333,9.333
						c4,2.333,8.667,3.333,13.667,3.333c8.333,0,15.333-3.333,20.667-9.667l12.333,11.333c-4,4.667-8.667,8.333-14.667,11
						C454,1001,447.333,1002,440.333,1002C431.667,1002,424.333,1000.333,417.333,996.667z"/>
				</g>
				
					<linearGradient id="SVGID_3_" gradientUnits="userSpaceOnUse" x1="-78.677" y1="1912.3549" x2="-79.0728" y2="1870.0127" gradientTransform="matrix(3.3333 0 0 -3.3333 692.8333 7272.833)">
					<stop  offset="4.200120e-007" style="stop-color:#456EBF"/>
					<stop  offset="1" style="stop-color:#4C6BBC;stop-opacity:0"/>
				</linearGradient>
				<rect x="425.333" y="902.333" fill="url(#SVGID_3_)" width="9.333" height="115.333"/>
				
					<linearGradient id="SVGID_4_" gradientUnits="userSpaceOnUse" x1="-73.5775" y1="1912.307" x2="-73.9732" y2="1869.965" gradientTransform="matrix(3.3333 0 0 -3.3333 692.8333 7272.833)">
					<stop  offset="4.200120e-007" style="stop-color:#456EBF"/>
					<stop  offset="1" style="stop-color:#4C6BBC;stop-opacity:0"/>
				</linearGradient>
				<rect x="442.333" y="902.333" fill="url(#SVGID_4_)" width="9.333" height="115.333"/>
			</g>
		</g>
		<g opacity="0.5">
			
				<linearGradient id="SVGID_5_" gradientUnits="userSpaceOnUse" x1="137.2876" y1="1905.7852" x2="137.8596" y2="1928.3802" gradientTransform="matrix(3.3333 0 0 -3.3333 692.8333 7272.833)">
				<stop  offset="4.200120e-007" style="stop-color:#456EBF"/>
				<stop  offset="1" style="stop-color:#4C6BBC;stop-opacity:0"/>
			</linearGradient>
			<circle opacity="0.2" fill="url(#SVGID_5_)" enable-background="new    " cx="1151.333" cy="885.667" r="59"/>
			<g>
				<g>
					
						<linearGradient id="SVGID_6_" gradientUnits="userSpaceOnUse" x1="136.4311" y1="1927.7511" x2="136.1839" y2="1901.292" gradientTransform="matrix(3.3333 0 0 -3.3333 692.8333 7272.833)">
						<stop  offset="4.200120e-007" style="stop-color:#456EBF"/>
						<stop  offset="1" style="stop-color:#4C6BBC;stop-opacity:0"/>
					</linearGradient>
					<path fill="url(#SVGID_6_)" d="M1136.333,908.333c-4.333-2.333-7.667-5.333-10-9.667c-2.333-4-3.667-8.667-3.667-13.667
						s1.333-9.667,3.667-13.667c2.333-4,5.667-7.333,10-9.667c4.333-2.333,9-3.333,14.333-3.333c4.333,0,8.667,0.667,12,2.333
						c3.667,1.667,6.667,4,9,6.667l-7.667,7c-3.333-4-7.667-6-13-6c-3.333,0-6,0.667-8.667,2c-2.667,1.333-4.333,3.333-6,6
						c-1.333,2.667-2,5.333-2,8.667s0.667,6,2,8.667c1.333,2.667,3.333,4.333,6,6c2.667,1.333,5.333,2,8.667,2c5.333,0,9.667-2,13-6
						l7.667,7c-2.333,3-5.667,5.333-9,7C1159,911.333,1155,912,1150.333,912C1145.333,912,1140.667,910.667,1136.333,908.333z"/>
				</g>
				
					<linearGradient id="SVGID_7_" gradientUnits="userSpaceOnUse" x1="135.5576" y1="1927.7593" x2="135.3102" y2="1901.3002" gradientTransform="matrix(3.3333 0 0 -3.3333 692.8333 7272.833)">
					<stop  offset="4.200120e-007" style="stop-color:#456EBF"/>
					<stop  offset="1" style="stop-color:#4C6BBC;stop-opacity:0"/>
				</linearGradient>
				<rect x="1141.333" y="849.333" fill="url(#SVGID_7_)" width="6" height="72"/>
				
					<linearGradient id="SVGID_8_" gradientUnits="userSpaceOnUse" x1="138.7573" y1="1927.7292" x2="138.51" y2="1901.2701" gradientTransform="matrix(3.3333 0 0 -3.3333 692.8333 7272.833)">
					<stop  offset="4.200120e-007" style="stop-color:#456EBF"/>
					<stop  offset="1" style="stop-color:#4C6BBC;stop-opacity:0"/>
				</linearGradient>
				<rect x="1152" y="849.333" fill="url(#SVGID_8_)" width="6" height="72"/>
			</g>
		</g>
		<g opacity="0.7">
			
				<linearGradient id="SVGID_9_" gradientUnits="userSpaceOnUse" x1="242.3093" y1="1833.8932" x2="243.049" y2="1863.1108" gradientTransform="matrix(3.3333 0 0 -3.3333 692.8333 7272.833)">
				<stop  offset="4.200120e-007" style="stop-color:#456EBF"/>
				<stop  offset="1" style="stop-color:#4C6BBC;stop-opacity:0"/>
			</linearGradient>
			<circle opacity="0.2" fill="url(#SVGID_9_)" enable-background="new    " cx="1501.667" cy="1115" r="76.333"/>
			<g>
				<g>
					
						<linearGradient id="SVGID_10_" gradientUnits="userSpaceOnUse" x1="241.2698" y1="1862.2963" x2="240.9501" y2="1828.082" gradientTransform="matrix(3.3333 0 0 -3.3333 692.8333 7272.833)">
						<stop  offset="4.200120e-007" style="stop-color:#456EBF"/>
						<stop  offset="1" style="stop-color:#4C6BBC;stop-opacity:0"/>
					</linearGradient>
					<path fill="url(#SVGID_10_)" d="M1482.333,1144.667c-5.667-3-10-7-13-12.333s-4.667-11.333-4.667-17.667
						c0-6.667,1.667-12.667,4.667-17.667c3-5.333,7.333-9.333,13-12.333c5.667-3,11.667-4.333,18.667-4.333c5.667,0,11,1,15.667,3
						c4.667,2,8.667,5,11.667,8.667l-10,9c-4.667-5.333-10-7.667-16.667-7.667c-4,0-7.667,1-11,2.667
						c-3.333,1.667-5.667,4.333-7.667,7.667c-1.667,3.333-2.667,7-2.667,11s1,7.667,2.667,11c1.667,3.333,4.333,5.667,7.667,7.667
						c3.333,1.667,7,2.667,11,2.667c6.667,0,12.333-2.667,16.667-8l10,9c-3.333,4-7,7-12,9c-4.667,2-10,3-15.667,3
						C1494,1149,1488,1147.667,1482.333,1144.667z"/>
				</g>
				
					<linearGradient id="SVGID_11_" gradientUnits="userSpaceOnUse" x1="240.1398" y1="1862.3069" x2="239.8201" y2="1828.0925" gradientTransform="matrix(3.3333 0 0 -3.3333 692.8333 7272.833)">
					<stop  offset="4.200120e-007" style="stop-color:#456EBF"/>
					<stop  offset="1" style="stop-color:#4C6BBC;stop-opacity:0"/>
				</linearGradient>
				<rect x="1489" y="1068.333" fill="url(#SVGID_11_)" width="7.667" height="93.333"/>
				
					<linearGradient id="SVGID_12_" gradientUnits="userSpaceOnUse" x1="244.2394" y1="1862.2686" x2="243.9196" y2="1828.0543" gradientTransform="matrix(3.3333 0 0 -3.3333 692.8333 7272.833)">
					<stop  offset="4.200120e-007" style="stop-color:#456EBF"/>
					<stop  offset="1" style="stop-color:#4C6BBC;stop-opacity:0"/>
				</linearGradient>
				<rect x="1502.667" y="1068.333" fill="url(#SVGID_12_)" width="7.667" height="93.333"/>
			</g>
		</g>
		<g opacity="0.6">
			
				<linearGradient id="SVGID_13_" gradientUnits="userSpaceOnUse" x1="-44.1185" y1="1961.4454" x2="-43.5357" y2="1984.4679" gradientTransform="matrix(3.3333 0 0 -3.3333 692.8333 7272.833)">
				<stop  offset="4.200120e-007" style="stop-color:#456EBF"/>
				<stop  offset="1" style="stop-color:#4C6BBC;stop-opacity:0"/>
			</linearGradient>
			<circle opacity="0.2" fill="url(#SVGID_13_)" enable-background="new    " cx="546.667" cy="699.333" r="60"/>
			<g>
				<g>
					
						<linearGradient id="SVGID_14_" gradientUnits="userSpaceOnUse" x1="-44.9663" y1="1983.8268" x2="-45.2183" y2="1956.8669" gradientTransform="matrix(3.3333 0 0 -3.3333 692.8333 7272.833)">
						<stop  offset="4.200120e-007" style="stop-color:#456EBF"/>
						<stop  offset="1" style="stop-color:#4C6BBC;stop-opacity:0"/>
					</linearGradient>
					<path fill="url(#SVGID_14_)" d="M531.333,722.667C527,720.333,523.667,717,521,713c-2.333-4-3.667-8.667-3.667-14
						s1.333-10,3.667-14c2.333-4,6-7.333,10.333-9.667C535.667,673,540.667,672,546,672c4.667,0,8.667,0.667,12.333,2.333
						c3.667,1.667,6.667,4,9.333,7L560,688.667c-3.667-4-8-6.333-13.333-6.333c-3.333,0-6.333,0.667-8.667,2
						c-2.667,1.333-4.667,3.333-6,6c-1.333,2.667-2,5.333-2,8.667s0.667,6.333,2,8.667c1.333,2.667,3.333,4.667,6,6
						c2.667,1.333,5.333,2,8.667,2c5.333,0,9.667-2,13.333-6.333l7.667,7.333c-2.667,3-5.667,5.333-9.333,7S550.333,726,546,726
						C540.667,726,535.667,725,531.333,722.667z"/>
				</g>
				
					<linearGradient id="SVGID_15_" gradientUnits="userSpaceOnUse" x1="-45.8398" y1="1983.8348" x2="-46.0918" y2="1956.8752" gradientTransform="matrix(3.3333 0 0 -3.3333 692.8333 7272.833)">
					<stop  offset="4.200120e-007" style="stop-color:#456EBF"/>
					<stop  offset="1" style="stop-color:#4C6BBC;stop-opacity:0"/>
				</linearGradient>
				<rect x="536.667" y="662.667" fill="url(#SVGID_15_)" width="6" height="73.333"/>
				
					<linearGradient id="SVGID_16_" gradientUnits="userSpaceOnUse" x1="-42.6401" y1="1983.8049" x2="-42.8921" y2="1956.8452" gradientTransform="matrix(3.3333 0 0 -3.3333 692.8333 7272.833)">
					<stop  offset="4.200120e-007" style="stop-color:#456EBF"/>
					<stop  offset="1" style="stop-color:#4C6BBC;stop-opacity:0"/>
				</linearGradient>
				<rect x="547.333" y="662.667" fill="url(#SVGID_16_)" width="6" height="73.333"/>
			</g>
		</g>
		<g opacity="0.5">
			
				<linearGradient id="SVGID_17_" gradientUnits="userSpaceOnUse" x1="116.4211" y1="2036.0077" x2="116.9157" y2="2055.5447" gradientTransform="matrix(3.3333 0 0 -3.3333 692.8333 7272.833)">
				<stop  offset="4.200120e-007" style="stop-color:#456EBF"/>
				<stop  offset="1" style="stop-color:#4C6BBC;stop-opacity:0"/>
			</linearGradient>
			<circle opacity="0.2" fill="url(#SVGID_17_)" enable-background="new    " cx="1081.667" cy="456" r="51"/>
			<g>
				<g>
					
						<linearGradient id="SVGID_18_" gradientUnits="userSpaceOnUse" x1="115.8615" y1="2054.998" x2="115.6477" y2="2032.1198" gradientTransform="matrix(3.3333 0 0 -3.3333 692.8333 7272.833)">
						<stop  offset="4.200120e-007" style="stop-color:#456EBF"/>
						<stop  offset="1" style="stop-color:#4C6BBC;stop-opacity:0"/>
					</linearGradient>
					<path fill="url(#SVGID_18_)" d="M1069,476c-3.667-2-6.667-4.667-8.667-8.333c-2-3.667-3-7.333-3-12c0-4.333,1-8.333,3-12
						c2-3.667,5-6.333,8.667-8.333c3.667-2,7.667-3,12.333-3c4,0,7.333,0.667,10.667,2c3,1.333,5.667,3.333,8,6l-6.667,6
						c-3-3.333-6.667-5.333-11.333-5.333c-2.667,0-5.333,0.667-7.333,1.667c-2.333,1.333-4,3-5,5
						C1068.333,450,1068,452.333,1068,455c0,2.667,0.667,5.333,1.667,7.333c1.333,2.333,3,4,5,5C1077,468.667,1079.333,469,1082,469
						c4.333,0,8.333-1.667,11.333-5.333l6.667,6c-2,2.667-4.667,4.667-8,6c-3,1.333-6.667,2-10.667,2
						C1076.667,479,1072.667,478,1069,476z"/>
				</g>
				
					<linearGradient id="SVGID_19_" gradientUnits="userSpaceOnUse" x1="114.9935" y1="2055.0061" x2="114.7797" y2="2032.1279" gradientTransform="matrix(3.3333 0 0 -3.3333 692.8333 7272.833)">
					<stop  offset="4.200120e-007" style="stop-color:#456EBF"/>
					<stop  offset="1" style="stop-color:#4C6BBC;stop-opacity:0"/>
				</linearGradient>
				<rect x="1073.333" y="425" fill="url(#SVGID_19_)" width="5" height="62.333"/>
				
					<linearGradient id="SVGID_20_" gradientUnits="userSpaceOnUse" x1="117.6933" y1="2054.981" x2="117.4795" y2="2032.1028" gradientTransform="matrix(3.3333 0 0 -3.3333 692.8333 7272.833)">
					<stop  offset="4.200120e-007" style="stop-color:#456EBF"/>
					<stop  offset="1" style="stop-color:#4C6BBC;stop-opacity:0"/>
				</linearGradient>
				<rect x="1082.333" y="425" fill="url(#SVGID_20_)" width="5" height="62.333"/>
			</g>
		</g>
	</g>
	<g>
		
			<linearGradient id="SVGID_21_" gradientUnits="userSpaceOnUse" x1="-71.9569" y1="1885.6096" x2="257.5031" y2="1868.7861" gradientTransform="matrix(3.3333 0 0 -3.3333 692.8333 7272.833)">
			<stop  offset="4.200120e-007" style="stop-color:#21ADFE"/>
			<stop  offset="1" style="stop-color:#20AAFD;stop-opacity:0"/>
		</linearGradient>
		<path opacity="0.3" fill="url(#SVGID_21_)" enable-background="new    " d="M1726.333,1067.667c-4,16-8.333,32.333-14,48.667
			C1615,1406.667,1316.667,1595,1011,1653c-64,12-128.333,18.667-191,19c-51.667,0.333-102-3.333-150.667-11
			c-142.333-22.667-268-81-352.333-178.667c-113.667-132.333-149.333-339.667-68.667-553C310,766.333,439,600,652.333,461
			C785,374.333,936.333,342.333,1083,352.333c180.667,12.333,354.667,88.333,478,205c2,2,4,3.667,6,5.667
			c6,5.667,11.667,11.667,17.333,17.667c1.667,2,3.667,3.667,5.333,5.667c42.667,45.667,78,97,104,152c1,2,1.667,3.667,2.667,5.667
			C1740.333,841,1754.333,951.333,1726.333,1067.667z"/>
		
			<linearGradient id="SVGID_22_" gradientUnits="userSpaceOnUse" x1="206.6534" y1="1925.4491" x2="201.0713" y2="2029.3611" gradientTransform="matrix(3.3333 0 0 -3.3333 692.8333 7272.833)">
			<stop  offset="4.200120e-007" style="stop-color:#21ADFE"/>
			<stop  offset="1" style="stop-color:#20AAFD;stop-opacity:0"/>
		</linearGradient>
		<circle opacity="0.1" fill="url(#SVGID_22_)" enable-background="new    " cx="1373.333" cy="699.333" r="199"/>
		
			<linearGradient id="SVGID_23_" gradientUnits="userSpaceOnUse" x1="205.9201" y1="1939.0997" x2="201.9729" y2="2012.5765" gradientTransform="matrix(3.3333 0 0 -3.3333 692.8333 7272.833)">
			<stop  offset="4.200120e-007" style="stop-color:#21ADFE"/>
			<stop  offset="1" style="stop-color:#20AAFD;stop-opacity:0"/>
		</linearGradient>
		<circle opacity="0.1" fill="url(#SVGID_23_)" enable-background="new    " cx="1373.333" cy="699.333" r="140.667"/>
		<g>
			<path fill="#FFA1EB" d="M882.667,881c0,0-17.333,26.333-42,26.333C803,907.333,795,881,795,881c2.333-19.667,2-37,2-37h83.667
				C880.667,844,880.333,861.333,882.667,881z"/>
			
				<linearGradient id="SVGID_24_" gradientUnits="userSpaceOnUse" x1="204.15" y1="1975.2461" x2="204.15" y2="1934.7954" gradientTransform="matrix(3.3333 0 0 -3.3333 692.8333 7272.833)">
				<stop  offset="4.200120e-007" style="stop-color:#456EBF"/>
				<stop  offset="1" style="stop-color:#4C6BBC;stop-opacity:0"/>
			</linearGradient>
			
				<rect x="1307.667" y="687" opacity="0.2" fill="url(#SVGID_24_)" enable-background="new    " width="131.333" height="138.333"/>
			<rect x="1321.333" y="1009.667" fill="#FFEF6D" width="131.333" height="20"/>
			<rect x="1313.667" y="970" fill="#FFEF6D" width="131.333" height="20"/>
			<rect x="1317" y="950" fill="#FFD00D" width="131.333" height="20"/>
			<rect x="1307.667" y="930" fill="#FFEF6D" width="131.333" height="20"/>
			<rect x="1307.667" y="990" fill="#FFD00D" width="131.333" height="20"/>
			<path fill="#FFA1EB" d="M1284.667,1080c0,0,16.667-23.333,30-24.333c13.333-1,58.333,9.333,84,3.667
				c25.667-5.667,61-18.333,61-27c0-8.667-59.667,0.333-96.667-5.333c-37-5.667-48-13-110.667,18.667
				C1189.667,1077.333,1284.667,1080,1284.667,1080z"/>
			<path fill="#FFA1EB" d="M639,1294.333c-0.667,1.333,10.333,12.667,10.333,12.667l6.333,126.333c0,0-13-4.333-27.333-30
				c-7.667-17-0.333-50.667,2.333-58c3-7-22.333-26-22.333-26L639,1294.333z"/>
			<path fill="#FFA1EB" d="M959,687c0,0-4.333,80.667-10,102.333l0,0l0,0c0,0-32.667,65.333-106.667,65.333
				C736,854.667,722,711,722,708.333C771,721.667,849,719,959,687z"/>
			
				<linearGradient id="SVGID_25_" gradientUnits="userSpaceOnUse" x1="51.9071" y1="1764.1633" x2="43.8065" y2="1914.9592" gradientTransform="matrix(3.3333 0 0 -3.3333 692.8333 7272.833)">
				<stop  offset="0" style="stop-color:#192A7C"/>
				<stop  offset="0.9965" style="stop-color:#0A143C"/>
			</linearGradient>
			<path fill="url(#SVGID_25_)" d="M1032.667,1446.333l-376.667-11c0,0-13-245-15.667-357.333c-2.667-117.333,0-136.667,0-136.667
				s92-47,154.667-60.667c0,0,8,26.333,45.667,26.333c25,0,42-26.333,42-26.333l0,0c2.667,0.667,134.333,33.667,163.667,60
				C1075.667,967.667,1038.333,1368,1032.667,1446.333z"/>
			<path fill="#FFFFFF" d="M1046.333,941c0,0-88.667,83-29,192.667c59.667,109.667,98,126.667,98,126.667s30.667-98,10.667-150.667
				C1106.333,1056.667,1064.333,957.667,1046.333,941z"/>
			<path fill="#FFFFFF" d="M1115.333,1260c26.333,15,181-167.333,181-167.333l-51.333-54c0,0-87.667,56.333-114,91.667
				C1105,1165.667,1115.333,1260,1115.333,1260z"/>
			<path fill="#FFFFFF" d="M640.333,941.667c0,0-132.333,96.333-196.333,228c0,0,99.667,5,140-26.333c40.333-31,56-52.333,56-52.333
				S659.333,981.667,640.333,941.667z"/>
			<path fill="#FFFFFF" d="M444.333,1169.667c-25,42.333,168.333,166,168.333,166l31-47.667c0,0-65-105-109.667-124.667
				C489.333,1143.667,444.333,1169.667,444.333,1169.667z"/>
			
				<linearGradient id="SVGID_26_" gradientUnits="userSpaceOnUse" x1="38.4783" y1="1984.1069" x2="59.976" y2="2040.188" gradientTransform="matrix(3.3333 0 0 -3.3333 692.8333 7272.833)">
				<stop  offset="0" style="stop-color:#B61946"/>
				<stop  offset="0.9965" style="stop-color:#140D29"/>
			</linearGradient>
			<path fill="url(#SVGID_26_)" d="M949,789c5.667-21.667,10-102.333,10-102.333c-110,32-188,34.667-237,21.667
				c-45-12-66-37.333-66-65.667C656,583,683.667,482,839.333,496C1116,521.667,952,784.667,949,789C949,789.333,949,789,949,789z"/>
			
				<linearGradient id="SVGID_27_" gradientUnits="userSpaceOnUse" x1="44.3465" y1="1745.1177" x2="43.4118" y2="1668.4735" gradientTransform="matrix(3.3333 0 0 -3.3333 692.8333 7272.833)">
				<stop  offset="0" style="stop-color:#030E42"/>
				<stop  offset="1" style="stop-color:#0B295E;stop-opacity:0"/>
			</linearGradient>
			<path fill="url(#SVGID_27_)" d="M1021,1446.333L1011,1653c-64,12-128.333,18.667-191,19c-51.667,0.333-102-3.333-150.667-11
				L667,1600.333L660.667,1436l209.667,6L1021,1446.333z"/>
			<g>
				
					<linearGradient id="SVGID_28_" gradientUnits="userSpaceOnUse" x1="184.45" y1="1968.65" x2="223.85" y2="1968.65" gradientTransform="matrix(3.3333 0 0 -3.3333 692.8333 7272.833)">
					<stop  offset="4.200120e-007" style="stop-color:#456EBF"/>
					<stop  offset="1" style="stop-color:#4C6BBC;stop-opacity:0"/>
				</linearGradient>
				<circle opacity="0.2" fill="url(#SVGID_28_)" enable-background="new    " cx="1373.333" cy="710.667" r="65.667"/>
				<circle fill="#FFEF6D" cx="1373.333" cy="687" r="65.667"/>
				<g>
					<g>
						<path fill="#E8BE0F" d="M1384,706.333c-2.333,1-5,1.667-7.667,1.667c-0.333,0-0.667,0-1,0c-1.667,0-3.667-0.333-5.333-0.667
							c-2-0.333-4-1.333-6-2.333c-0.667-0.333-1.333-0.667-1.667-1c-2.333-1.667-4.333-4-6-6.667c-1.667-3-2.667-6.667-2.667-10.667
							c0-0.333,0-0.333,0-0.667c0-4,1-8,2.667-11c1.333-2.667,3.333-5,6-6.667c0.667-0.333,1-0.667,1.667-1c2-1,4-1.667,6-2.333
							c1.667-0.333,3.333-0.667,5.333-0.667c0.333,0,0.667,0,1,0c2.667,0,5.333,0.667,7.667,1.667c3,1.333,6,3.333,8.333,6.333
							l10-9.333c-3.333-4-7-6.667-12-9c-2-1-4.333-1.667-6.333-2c-2.333-0.667-5-1-7.667-1c-0.667,0-1,0-1.667,0
							c-1.667,0-3,0-4.333,0.333c-2.667,0.333-5.333,0.667-7.667,1.667c-2.333,0.667-4.333,1.667-6.667,2.667
							c-5.667,3-10,7-13,12.333c-3.333,5.333-4.667,11.333-4.667,18c0,0.333,0,0.333,0,0.667C1338.333,693,1340,699,1343,704
							c3,5.333,7.667,9.333,13,12.333c2,1,4.333,2,6.667,2.667c2.333,0.667,5,1.333,7.667,1.333c1.333,0.333,3,0.333,4.333,0.333
							c0.667,0,1,0,1.667,0c2.667,0,5.333-0.333,7.667-1c2.333-0.667,4.333-1.333,6.333-2c4.667-2,8.667-5,12-9l-10-9.333
							C1390,702.667,1387.333,705,1384,706.333z"/>
					</g>
					<rect x="1362.667" y="640" fill="#E8BE0F" width="7.667" height="94"/>
					<rect x="1376.333" y="640" fill="#E8BE0F" width="7.667" height="94"/>
				</g>
				<circle opacity="0.5" fill="#456EBF" enable-background="new    " cx="1444.667" cy="759.333" r="9.333"/>
				<circle opacity="0.5" fill="#456EBF" enable-background="new    " cx="1444.667" cy="608" r="9.333"/>
				<circle opacity="0.5" fill="#456EBF" enable-background="new    " cx="1469.667" cy="677" r="9.333"/>
				<circle opacity="0.5" fill="#456EBF" enable-background="new    " cx="1302.333" cy="759.333" r="9.333"/>
				<circle opacity="0.5" fill="#456EBF" enable-background="new    " cx="1302.333" cy="608" r="9.333"/>
				<circle opacity="0.5" fill="#456EBF" enable-background="new    " cx="1277.333" cy="677" r="9.333"/>
				<g opacity="0.3">
					
						<linearGradient id="SVGID_29_" gradientUnits="userSpaceOnUse" x1="223.4095" y1="2003.7413" x2="261.4436" y2="2015.1781" gradientTransform="matrix(3.3333 0 0 -3.3333 692.8333 7272.833)">
						<stop  offset="4.200120e-007" style="stop-color:#456EBF"/>
						<stop  offset="1" style="stop-color:#4C6BBC;stop-opacity:0"/>
					</linearGradient>
					<path fill="url(#SVGID_29_)" d="M1567,562.667h-73l-47.333,47.667c-0.667,0.667-1.333,0.667-2,0.667s-1.333-0.333-2-0.667
						c-1-1-1-3,0-4L1458,591l32.667-32.667c0.667-0.667,1.333-0.667,2-0.667H1561C1563,559,1565,561,1567,562.667z"/>
				</g>
				<g opacity="0.3">
					
						<linearGradient id="SVGID_30_" gradientUnits="userSpaceOnUse" x1="228.9943" y1="1987.3256" x2="270.0909" y2="1999.6832" gradientTransform="matrix(3.3333 0 0 -3.3333 692.8333 7272.833)">
						<stop  offset="4.200120e-007" style="stop-color:#456EBF"/>
						<stop  offset="1" style="stop-color:#4C6BBC;stop-opacity:0"/>
					</linearGradient>
					<path fill="url(#SVGID_30_)" d="M1590,586h-25l-93.333,93.333c-0.667,0.667-1.333,0.667-2,0.667s-1.333-0.333-2-0.667
						c-1-1-1-3,0-4L1474,669l28.667-28.667L1562,581c0.667-0.667,1.333-0.667,2-0.667h21C1586.333,582,1588,584,1590,586z"/>
				</g>
				<g opacity="0.3">
					
						<linearGradient id="SVGID_31_" gradientUnits="userSpaceOnUse" x1="236.8837" y1="1952.3627" x2="306.0131" y2="1973.1498" gradientTransform="matrix(3.3333 0 0 -3.3333 692.8333 7272.833)">
						<stop  offset="4.200120e-007" style="stop-color:#456EBF"/>
						<stop  offset="1" style="stop-color:#4C6BBC;stop-opacity:0"/>
					</linearGradient>
					<path fill="url(#SVGID_31_)" d="M1696.333,743.667h-51c-0.667,0-1.333-0.333-2-0.667l-38-38h-46l-3.667,3.667L1503,761.333
						c-0.667,0.667-1.333,1-2,1h-56.333c-1.667,0-3-1.333-3-3c0-1.667,1.333-3,3-3H1500l52.667-52.667l3.667-3.667
						c0.667-0.667,1.333-0.667,2-0.667h48.333c0.667,0,1.333,0.333,2,0.667l38,38H1694C1694.667,740,1695.667,742,1696.333,743.667z
						"/>
				</g>
				<g opacity="0.3">
					
						<linearGradient id="SVGID_32_" gradientUnits="userSpaceOnUse" x1="177.2018" y1="1999.009" x2="106.5757" y2="2006.4771" gradientTransform="matrix(3.3333 0 0 -3.3333 692.8333 7272.833)">
						<stop  offset="4.200120e-007" style="stop-color:#456EBF"/>
						<stop  offset="1" style="stop-color:#4C6BBC;stop-opacity:0"/>
					</linearGradient>
					<path fill="url(#SVGID_32_)" d="M1287.667,625.333h-98.333c-0.667,0-1.333-0.333-2-1l-50-50H1026c-1.667,0-3-1.333-3-3
						c0-1.667,1.333-3,3-3h112.667c0.667,0,1.333,0.333,2,1l50,50h96l13.667-13.667c1-1,3-1,4,0c1,1,1,3,0,4L1290,624
						C1289.333,625,1288.667,625.333,1287.667,625.333z"/>
				</g>
				<g opacity="0.3">
					
						<linearGradient id="SVGID_33_" gradientUnits="userSpaceOnUse" x1="175.6786" y1="1984.6035" x2="105.0526" y2="1992.0714" gradientTransform="matrix(3.3333 0 0 -3.3333 692.8333 7272.833)">
						<stop  offset="4.200120e-007" style="stop-color:#456EBF"/>
						<stop  offset="1" style="stop-color:#4C6BBC;stop-opacity:0"/>
					</linearGradient>
					<path fill="url(#SVGID_33_)" d="M1277.333,680c-0.667,0-1.333-0.333-2-1l-22.667-22.667h-107c-0.667,0-1.333-0.333-2-1l-32-32
						h-102c-1.667,0-3-1.333-3-3c0-1.667,1.333-3,3-3h103c0.667,0,1.333,0.333,2,1l32,32h107c0.667,0,1.333,0.333,2,1L1279.333,675
						c1,1,1,3,0,4C1278.667,679.667,1278,680,1277.333,680z"/>
				</g>
				<g opacity="0.3">
					
						<linearGradient id="SVGID_34_" gradientUnits="userSpaceOnUse" x1="171.574" y1="1945.7859" x2="100.9479" y2="1953.2538" gradientTransform="matrix(3.3333 0 0 -3.3333 692.8333 7272.833)">
						<stop  offset="4.200120e-007" style="stop-color:#456EBF"/>
						<stop  offset="1" style="stop-color:#4C6BBC;stop-opacity:0"/>
					</linearGradient>
					<path fill="url(#SVGID_34_)" d="M1205.667,806.667h-80c-0.667,0-1.333-0.333-2-1l-41.333-41.333h-73c-1.667,0-3-1.333-3-3
						c0-1.667,1.333-3,3-3h74.333c0.667,0,1.333,0.333,2,1L1127,800.667h77.667L1248,757.333c0.667-0.667,1.333-1,2-1h52
						c1.667,0,3,1.333,3,3s-1.333,3-3,3h-51l-43.333,43.333C1207.333,806.333,1206.667,806.667,1205.667,806.667z"/>
				</g>
			</g>
		</g>
	</g>
</g>
</svg>
