
<svg xmlns="http://www.w3.org/2000/svg" version="1.1" xmlns:xlink="http://www.w3.org/1999/xlink" preserveAspectRatio="none" x="0px" y="0px" width="200px" height="200px" viewBox="0 0 200 200">
<defs>
<linearGradient id="Gradient_1" gradientUnits="userSpaceOnUse" x1="54.525" y1="149.175" x2="148.875" y2="54.824999999999996" spreadMethod="pad">
<stop  offset="0%" stop-color="#E32023"/>

<stop  offset="100%" stop-color="#FF7777"/>
</linearGradient>

<g id="Layer0_0_FILL">
<path fill="url(#Gradient_1)" stroke="none" d="
M 95.6 72
Q 105.5 72 112.5 78.95
L 112.55 79
Q 119.5 86 119.5 95.9 119.55 102.65 116.3 108.05 115 110.1 115.3 112.5 115.6 114.9 117.3 116.6
L 145.75 145.05 141.15 149.65 132.8 141.3
Q 131.05 139.55 128.6 139.3 126.1 139.05 124.05 140.4 111.5 148.6 95.55 148.55 73.7 148.55 58.25 133.1 42.85 117.7 42.85 95.85 42.85 74 58.25 58.55 73.7 43.15 95.55 43.15 117.4 43.15 132.8 58.55 148.25 74 148.25 95.85 148.25 100.9 147.45 105.65 146.95 108.5 148.65 110.85 150.35 113.2 153.2 113.7 156.05 114.2 158.4 112.5 160.75 110.8 161.25 108 162.25 102.1 162.25 95.85 162.25 68.2 142.7 48.65 123.2 29.15 95.55 29.15 67.9 29.15 48.35 48.65 28.85 68.2 28.85 95.85 28.85 123.5 48.35 143 67.9 162.55 95.55 162.55 112.7 162.5 126.75 155.05
L 132.65 160.95
Q 136.85 165.15 141.15 164.8 145.45 165.15 149.6 161
L 157.05 153.55
Q 161.25 149.4 160.9 145.05 161.25 140.75 157.05 136.55
L 130.75 110.25
Q 133.45 103.65 133.5 95.9 133.5 80.2 122.45 69.1
L 122.4 69.05
Q 111.3 58 95.6 58 79.85 58 68.8 69.05
L 68.75 69.1
Q 57.7 80.2 57.7 95.9 57.7 111.6 68.75 122.7 79 132.95 93.25 133.75
L 93.3 133.75
Q 94.4 133.8 95.6 133.8 98.85 133.8 101.95 133.35 104.8 132.85 106.5 130.55 108.2 128.2 107.75 125.35 107.3 122.45 105 120.75 102.65 119.05 99.8 119.5 97.75 119.8 95.6 119.8 94.8 119.8 94.05 119.75 85.1 119.25 78.7 112.85
L 78.65 112.8
Q 71.7 105.8 71.7 95.9 71.7 86 78.65 79 78.65 78.95 78.7 78.95 85.7 72 95.6 72 Z"/>
</g>
</defs>

<g transform="matrix( 1, 0, 0, 1, 0,0) ">
<use xlink:href="#Layer0_0_FILL"/>
</g>
</svg>
